<?xml version="1.0" encoding="UTF-8" ?>
<!DOCTYPE svg PUBLIC "-//W3C//DTD SVG 1.1//EN" "http://www.w3.org/Graphics/SVG/1.1/DTD/svg11.dtd">
<svg width="823pt" height="712pt" viewBox="0 0 823 712" version="1.1" xmlns="http://www.w3.org/2000/svg">
<g id="#000000ff">
<path fill="#000000" opacity="1.00" d=" M 411.28 0.00 L 412.04 0.00 C 416.36 8.79 422.00 16.82 426.64 25.43 C 430.68 32.67 435.60 39.44 438.94 47.06 C 441.15 52.24 445.21 56.33 447.51 61.47 C 454.82 76.38 464.95 89.67 472.40 104.50 C 476.94 114.02 483.35 122.47 488.16 131.85 C 492.18 139.92 498.02 146.92 501.77 155.14 C 507.01 164.83 512.16 174.60 518.18 183.85 C 522.65 191.38 526.77 199.12 531.60 206.43 C 534.66 210.96 535.64 216.58 539.11 220.87 C 543.36 226.29 545.92 232.74 549.46 238.61 C 555.40 248.42 561.70 258.07 566.60 268.47 C 568.99 272.69 572.18 276.44 574.15 280.91 C 584.37 297.80 593.59 315.28 603.86 332.15 C 607.73 338.62 610.87 345.53 615.25 351.70 C 619.97 358.27 622.52 366.09 627.35 372.59 C 631.98 381.13 636.82 389.56 641.71 397.96 C 637.99 405.05 633.86 411.90 629.68 418.72 C 622.90 428.57 618.36 439.75 611.61 449.61 C 609.69 452.55 608.55 455.89 606.79 458.92 C 606.44 458.88 605.75 458.81 605.40 458.78 C 596.65 443.48 587.16 428.56 579.31 412.77 C 575.40 406.88 572.14 400.59 568.31 394.65 C 562.52 385.33 557.78 375.39 551.76 366.21 C 549.26 362.26 547.54 357.87 544.84 354.05 C 538.09 345.33 533.33 335.29 528.48 325.45 C 522.11 316.21 517.75 305.79 511.50 296.48 C 508.83 292.38 507.17 287.71 504.33 283.71 C 500.52 278.27 498.03 272.07 494.44 266.51 C 488.46 257.59 484.39 247.57 478.26 238.74 C 474.47 233.59 472.62 227.33 468.79 222.21 C 465.78 218.03 463.82 213.22 461.20 208.80 C 451.48 191.65 441.09 174.90 431.38 157.75 C 425.88 145.95 418.02 135.47 412.20 123.84 C 404.86 133.64 399.62 144.76 393.10 155.08 C 389.03 161.75 385.75 168.89 381.31 175.34 C 377.76 180.39 375.33 186.08 372.41 191.49 C 366.43 201.94 359.72 211.99 354.41 222.81 C 350.61 222.96 346.80 223.10 343.00 223.04 C 322.92 222.84 302.85 223.24 282.78 222.85 C 290.00 208.63 299.51 195.68 306.25 181.22 C 310.86 174.87 313.70 167.51 318.05 161.01 C 323.20 153.01 327.60 144.56 332.35 136.33 C 339.65 125.35 345.17 113.32 352.24 102.20 C 357.66 93.83 361.96 84.81 367.38 76.44 C 371.81 69.61 374.77 61.95 379.16 55.09 C 384.75 46.84 389.15 37.88 394.49 29.47 C 397.61 24.77 399.35 19.31 402.67 14.72 C 405.95 10.06 408.03 4.68 411.28 0.00 Z" />
<path fill="#000000" opacity="1.00" d=" M 226.63 319.21 C 236.08 318.71 245.54 319.13 255.00 319.00 C 269.49 319.12 283.99 318.74 298.47 319.18 C 291.02 330.73 285.33 343.30 277.89 354.85 C 273.75 362.88 268.20 370.08 264.30 378.23 C 261.04 385.10 256.42 391.18 252.88 397.89 C 246.28 410.65 238.20 422.57 231.34 435.18 C 227.09 445.18 220.20 453.72 215.39 463.45 C 208.97 474.03 202.73 484.71 196.48 495.40 C 191.52 505.23 186.06 514.80 180.00 524.00 C 175.95 531.86 171.09 539.27 167.11 547.18 C 162.91 554.89 157.83 562.10 153.87 569.96 C 151.13 575.36 147.67 580.32 144.46 585.44 C 133.12 607.44 119.18 627.99 107.83 649.99 C 143.23 650.01 178.65 650.02 214.05 649.97 C 215.31 650.08 216.92 649.93 217.68 651.21 C 222.49 657.97 226.51 665.26 230.45 672.55 C 237.87 685.81 246.44 698.43 253.30 712.00 L 0.00 712.00 L 0.00 710.82 C 2.18 707.98 4.27 705.07 5.85 701.87 C 9.90 693.83 15.30 686.59 19.57 678.68 C 23.52 671.10 28.42 664.05 32.28 656.42 C 34.83 651.38 38.20 646.80 40.69 641.73 C 44.52 633.82 49.90 626.80 53.97 619.02 C 58.07 610.97 62.92 603.33 67.41 595.49 C 70.05 591.07 72.20 586.36 75.11 582.10 C 80.72 574.07 84.23 564.80 89.86 556.78 C 92.97 552.37 94.89 547.28 97.71 542.70 C 102.96 533.93 107.65 524.83 113.44 516.40 C 116.67 511.71 117.93 505.95 121.50 501.45 C 128.23 490.76 133.86 479.41 140.76 468.81 C 145.69 460.39 150.37 451.82 155.45 443.49 C 158.56 438.47 160.84 432.99 164.08 428.05 C 167.60 422.78 170.18 416.94 173.73 411.68 C 176.98 407.03 178.50 401.43 181.84 396.84 C 186.07 389.97 190.19 383.05 193.84 375.86 C 205.45 357.38 215.72 338.10 226.63 319.21 Z" />
<path fill="#000000" opacity="1.00" d=" M 368.15 371.24 C 387.68 364.24 409.46 363.75 429.32 369.75 C 448.19 375.57 465.41 387.12 477.34 402.91 C 482.51 402.65 487.64 401.85 492.80 401.38 C 504.39 399.08 516.28 398.70 528.06 399.11 C 536.36 399.64 545.19 400.89 552.01 406.06 C 557.11 409.99 558.11 417.30 556.08 423.12 C 553.52 430.47 548.81 436.89 543.41 442.41 C 533.55 452.79 522.01 461.49 509.74 468.82 C 505.89 471.76 501.35 473.64 497.50 476.54 C 496.51 478.83 496.23 481.34 495.70 483.76 C 488.52 518.08 460.97 547.05 427.13 556.14 C 394.24 565.74 356.59 555.81 332.59 531.41 C 330.69 529.83 328.87 527.31 326.10 527.73 C 305.03 528.98 283.34 530.19 262.83 524.20 C 255.58 521.84 247.27 518.23 244.55 510.47 C 242.16 502.76 247.02 495.41 252.01 489.97 C 260.57 480.90 271.25 474.18 281.93 467.91 C 289.10 463.93 296.28 459.94 303.77 456.59 C 305.29 442.18 308.93 427.83 316.20 415.20 C 327.58 395.00 346.31 379.05 368.15 371.24 M 484.11 412.20 C 489.24 421.24 493.45 430.86 495.59 441.08 C 501.14 438.96 505.74 434.98 510.33 431.31 C 514.00 427.72 518.68 424.20 519.63 418.85 C 520.10 415.30 516.56 413.13 513.59 412.40 C 503.93 409.97 493.90 411.61 484.11 412.20 M 281.44 482.53 C 279.30 485.46 280.67 489.64 283.87 491.14 C 291.59 495.21 300.64 495.46 309.18 495.17 C 306.42 485.71 304.22 476.07 303.87 466.19 C 295.82 470.69 286.77 474.61 281.44 482.53 Z" />
<path fill="#000000" opacity="1.00" d=" M 696.43 492.92 C 701.38 500.97 705.92 509.27 710.57 517.50 C 714.70 522.94 717.46 529.20 720.78 535.12 C 723.89 541.53 728.32 547.17 731.57 553.49 C 735.59 561.32 740.90 568.38 744.83 576.26 C 748.75 583.01 752.32 589.96 756.27 596.71 C 760.28 604.21 765.36 611.09 769.30 618.63 C 772.93 625.82 777.98 632.18 781.37 639.50 C 783.78 644.88 787.06 649.79 789.98 654.89 C 793.97 662.71 799.15 669.85 803.43 677.50 C 809.80 688.87 816.08 700.29 823.00 711.33 L 823.00 712.00 L 363.20 712.00 C 355.79 698.82 348.03 685.85 340.15 672.95 C 336.83 665.39 331.04 659.11 328.63 651.13 C 355.08 650.81 381.54 651.10 408.00 651.00 C 510.71 650.98 613.42 651.04 716.12 650.97 C 712.49 645.68 710.31 639.58 706.68 634.29 C 704.99 631.82 703.76 629.09 702.47 626.40 C 700.69 622.71 697.90 619.64 696.03 616.01 C 694.44 612.95 692.94 609.84 691.15 606.91 C 683.75 595.39 677.21 583.36 670.71 571.33 C 667.75 566.29 664.32 561.51 661.66 556.30 C 660.26 554.18 661.97 551.92 663.06 550.10 C 667.20 544.06 670.81 537.69 674.40 531.32 C 680.97 518.09 689.15 505.75 696.43 492.92 Z" />
<path fill="#000000" opacity="1.00" d=" M 277.34 547.46 C 287.33 544.69 298.42 552.63 298.94 562.99 C 300.12 572.64 291.73 582.06 282.01 581.99 C 272.68 582.59 263.96 574.35 264.01 565.01 C 263.53 556.96 269.55 549.27 277.34 547.46 Z" />
<path fill="#000000" opacity="1.00" d=" M 317.35 581.41 C 322.88 579.49 329.07 584.25 328.98 590.01 C 329.48 595.07 325.18 600.14 320.00 599.96 C 315.20 600.11 311.00 595.71 311.03 590.99 C 310.66 586.84 313.37 582.66 317.35 581.41 Z" />
</g>
</svg>
